<?xml version="1.0" encoding="utf-8"?>
<!-- Generator: Adobe Illustrator 19.1.0, SVG Export Plug-In . SVG Version: 6.00 Build 0)  -->
<svg version="1.1" id="Layer_1" xmlns="http://www.w3.org/2000/svg" xmlns:xlink="http://www.w3.org/1999/xlink" x="0px" y="0px"
	 viewBox="0 0 360 360" style="enable-background:new 0 0 360 360;" xml:space="preserve">
<style type="text/css">
	.st0{fill:#4C4C4C;}
	.st1{fill:#E94233;}
</style>
<g>
	<g>
		<path class="st0" d="M113.5,325.1c-1.1,0.3-2.1,0.6-3.1,0.8c-6.7,1.3-12.4-0.7-17-5.6c-1.4-1.5-2.2-3.4-2.8-5.4
			c-1-3.3-1.2-6.8-1.2-10.2c0-6.1,0.8-12.1,1.9-18.1c4.1-22.4,9.1-44.6,14-66.8c2.4-10.8,4.7-21.7,7-32.5c0.1-0.5,0.1-1,0.2-1.5
			c-0.5,0-0.9-0.1-1.3-0.1c-4.1-0.1-8.2-0.5-12.3-1c-7.3-1-14.4-2.6-21.5-4.6c-16.1-4.7-31.4-11.3-45.9-19.8
			c-3.3-1.9-6.4-4.1-9.3-6.6c-2-1.8-3.7-3.8-4.9-6.2c-1.8-3.6-2-7.2-0.9-11.1c1.3-4.1,3.9-6.9,7.6-8.9c3.1-1.7,6.6-2.6,10-3.2
			c4.1-0.7,8.2-1.1,12.4-1.1c5-0.1,9.9-0.3,14.9-0.8c2.8-0.3,5.6-0.7,8.4-1.1c0.3,0,0.5-0.2,0.8-0.3c-0.2-0.5-0.4-0.8-0.6-1.2
			c-2.1-3.8-4.3-7.7-6.4-11.5c-4.1-7.6-7.1-15.6-8.6-24.1c-1.1-6.2-1.1-12.4,0.4-18.5c0.9-3.6,3.2-6.2,6.5-7.8
			c2.2-1,4.7-1.2,7.1-0.8c3.6,0.5,6.9,2,9.9,3.8c2.9,1.8,5.6,3.8,8.1,6.1c7.5,7,15.4,13.4,23.4,19.8c6.3,5,12.6,9.9,19.3,14.4
			c1.1,0.7,2.3,1.4,3.5,2.2c0.3-0.6,0.5-1,0.7-1.4c1.6-3.7,2.6-7.5,3.7-11.3c2.3-7.7,5.1-15.3,8.3-22.6c3.2-7.2,7.5-13.6,13.4-18.9
			c6.3-5.6,13.6-9.1,21.9-10.3c9.4-1.4,17.9,1,25.6,6.5c6.5,4.7,11.8,10.6,15.5,17.8c2.2,4.3,3.5,8.9,4.4,13.6c1.1,5.7,2,11.4,3,17
			c0.8,4.4,1.6,8.7,2.9,12.9c0.1,0.4,0.3,0.8,0.5,1.4c0.5-0.1,1-0.1,1.4-0.2c1.9-0.5,3.7-1.4,5.3-2.5c3.5-2.2,6.6-5,9.5-7.9
			c5.6-5.5,10.7-11.4,15.8-17.4c3.5-4.2,7.1-8.3,10.7-12.4c1.4-1.6,2.9-3.1,4.4-4.5c3-2.7,6.5-4.8,10.6-5.5
			c4.6-0.8,8.7,0.3,12.1,3.5c1.6,1.5,3.2,3.2,3.8,5.4c0.3,1.2,0.6,2.5,0.6,3.8c0.2,4.2-0.6,8.4-1.5,12.5c-2.7,12.4-6.9,24.3-11.9,36
			c-0.2,0.4-0.4,0.9-0.6,1.5c0.3,0.1,0.5,0.1,0.7,0.1c2.8-0.2,5.5-0.4,8.3-0.6c8-0.6,16-1.2,24-0.7c2.9,0.2,5.8,0.6,8.6,1.5
			c3.8,1.2,6.2,3.8,7.4,7.5c0.8,2.4,0.5,4.8-0.1,7.2c-0.6,2.3-1.6,4.5-2.9,6.4c-1.2,1.8-2.5,3.6-3.9,5.3c-4.5,5.3-9.6,9.8-15.2,13.9
			c-12.8,9.3-26.4,17.2-41.1,22.9c-7,2.7-14.2,4.8-21.7,6c-1.6,0.3-3.3,0.4-4.9,0.6c-0.3,0-0.7,0.1-1.2,0.2c0.2,1.2,0.3,2.3,0.5,3.4
			c2.7,15.6,5.3,31.3,8.1,46.9c2.2,12.2,4.9,24.4,7.8,36.5c2.4,9.9,3.8,20,3.4,30.2c-0.1,3.8-0.6,7.5-1.9,11.1
			c-0.7,2-1.8,3.7-3.7,4.8c-1.9,1.2-4,2.3-6.3,2.5c-1.9,0.2-3.8,0.1-5.6,0c-2.6-0.2-5.1-0.8-7.6-1.7c-0.3-0.1-0.7-0.2-1.1-0.3
			c-0.2,0.3-0.3,0.6-0.5,0.8c-1.3,2.4-2.6,4.8-4,7.1c-4.5,7.1-13.6,8.5-19.9,5.4c-3-1.4-5.5-3.3-7.6-5.8c-3.5-4.3-7.1-8.6-10.5-12.9
			c-3.4-4.2-7.1-8-11.7-10.9c-3-1.9-6.2-3.5-9.8-4.2c-5.8-1.3-10.9,0.1-15.3,4.1c-1.2,1.1-2.3,2.5-3.4,3.8
			c-3.3,3.7-6.5,7.5-9.8,11.2c-3,3.3-6.4,6.3-10.1,8.8c-3.2,2.2-6.6,3.8-10.4,4.6c-2.2,0.4-4.5,0.4-6.7,0.1
			c-3.8-0.6-6.5-2.9-8.6-5.9c-0.8-1.2-1.5-2.5-2.3-3.8C114,325.8,113.8,325.5,113.5,325.1z M290.7,122.1c-0.6,0-0.8-0.1-1.1,0
			c-2.1,0.1-4.2,0.2-6.3,0.3c-6.2,0.2-12.4-0.2-18.6-1c-4.9-0.6-9.8-1.5-14.6-2.9c-6.2-1.9-11.8-5-17.2-8.6
			c-0.8-0.6-1.3-1.2-1.6-2.2c-1.8-5.7-2.8-11.6-3.8-17.6c-0.9-5.4-1.8-10.8-3-16.1c-1-4.7-2.5-9.3-5.1-13.3
			c-3.9-6.2-8.9-11.5-15.1-15.6c-7.1-4.7-14.8-6.5-23.3-5.2c-8.1,1.3-15.2,4.8-21.3,10.4c-5.6,5.1-9.6,11.3-12.6,18.2
			c-3.4,7.7-6.3,15.6-8.6,23.7c-1.3,4.7-2.8,9.3-5,13.7c-0.4,0.7-0.8,1.2-1.6,1.4c-1.2,0.3-2.4,0.7-3.6,1.1
			c-17.9,5.4-35.9,10.4-54.3,13.5c-0.2,0-0.4,0.2-0.8,0.4c1.1,1.9,2.2,3.8,3.3,5.7c8.4,14.5,17,28.8,26.3,42.7
			c2.5,3.7,5.2,7.2,7.8,10.7c0.7,0.9,1.4,1.8,2.3,2.4c1.1,0.7,1.2,1.5,1,2.6c-1.1,6.7-2.5,13.3-3.3,20c-1.2,9.4-2.2,18.9-3,28.4
			c-0.7,8-1.1,16-1.3,24c-0.3,9.1-0.4,18.2,0.1,27.2c0.3,6.3,0.9,12.5,2.2,18.6c1.2,5.8,2.7,11.6,5.1,17.1c0.2,0.4,0.4,0.9,0.7,1.4
			c1.4-0.6,2.8-1.1,4.1-1.7c6-2.9,11.9-5.8,17.9-8.6c7.8-3.7,15.7-7.1,24.1-9.4c4.5-1.3,9.1-2.3,13.7-2.1c4.2,0.1,8.4,0.5,12.6,1
			c6.9,0.9,13.7,2.4,20.5,4.2c10.7,3,21.1,6.9,30.8,12.4c1.6,0.9,3.3,1.6,4.9,2.4c0.3,0.1,0.6,0.2,1,0.3c0.1-0.3,0.3-0.6,0.4-0.8
			c0.9-3.1,1.8-6.1,2.6-9.2c2.1-9.1,3.9-18.4,5.3-27.6c0.7-4.2,1.3-8.4,1.6-12.6c0.4-4.4,0.5-8.8,0.5-13.1c0-7-0.1-14.1-0.4-21.1
			c-0.3-7.5-0.8-15-1.5-22.5c-0.7-7.9-1.8-15.8-2.8-23.7c-0.1-0.9-0.1-1.7,0.4-2.5c1.8-3,3.4-6.1,5.3-9c5.4-8.3,11-16.4,16.4-24.7
			c5.2-7.9,10.3-15.9,14.8-24.3C287.9,127.8,289.2,125.1,290.7,122.1z M110.4,184c0-0.1,0.1-0.2,0.1-0.3c-0.2-0.3-0.4-0.6-0.6-0.8
			c-1.2-1.5-2.4-3-3.6-4.5c-5.4-7.3-10.3-15-15-22.7c-6.4-10.6-12.7-21.3-19.1-31.9c-0.8-1.4-0.8-1.4-2.4-1.2
			c-2.1,0.3-4.2,0.6-6.2,0.8c-5.6,0.7-11.1,1-16.7,1.1c-4.7,0.1-9.5,0.4-14.1,1.4c-3.2,0.7-6.2,1.6-9,3.3c-2.3,1.4-4.3,3.3-5.3,5.9
			c-2,5-1.7,9.8,1.8,14.2c1.4,1.8,3.1,3.4,4.9,4.8c3.3,2.5,6.7,4.8,10.4,6.6c0.8,0.4,1.4,0.9,2.2,1.3c0.9,0.5,1.7,0.9,2.6,1.4
			c1.2,0.6,2.4,1.2,3.6,1.8c0.8,0.4,1.6,0.9,2.5,1.3c2.5,1.1,5,2.2,7.5,3.3c1,0.4,1.9,1,2.9,1.4c2.6,1,5.3,2,7.9,3
			c0.9,0.3,1.8,0.8,2.7,1.1c2.9,0.9,5.9,1.8,8.8,2.7c1.1,0.3,2.2,0.8,3.3,1.1c1.2,0.3,2.5,0.6,3.8,0.9c3,0.7,5.9,1.6,8.9,2.1
			c4.1,0.7,8.2,1.3,12.3,1.8C106.5,183.9,108.5,183.9,110.4,184z M251.5,188.9c1.4-0.1,2.6-0.2,3.8-0.4c7.2-1.1,14.3-2.9,21.1-5.5
			c13.2-4.8,25.4-11.5,37-19.4c6.4-4.4,12.7-9,18.1-14.7c2.5-2.7,5-5.5,6.9-8.7c1.2-2.1,2.3-4.3,2.6-6.7c0.7-4.3-0.8-9.7-6.7-11.5
			c-2.6-0.8-5.3-1.2-8-1.5c-5-0.4-10-0.2-15,0.1c-5.9,0.3-11.9,0.8-17.8,1.2c-0.8,0-1.2,0.3-1.5,1c-4,8.9-8.9,17.3-14.3,25.5
			c-6.3,9.6-12.7,19.2-19,28.8c-2.2,3.3-4.2,6.7-6.3,10.1C252.1,187.7,251.9,188.2,251.5,188.9z M132.4,104.5
			c-0.3-0.2-0.5-0.4-0.8-0.6c-1.9-1.3-3.9-2.5-5.8-3.8c-7.7-5.4-15-11.2-22.2-17.1c-6-4.9-11.9-9.8-17.6-15.1
			c-2.8-2.6-5.9-4.9-9.3-6.8c-2.4-1.3-4.8-2.3-7.5-2.7c-4.5-0.8-8.6,1-10.8,5c-0.7,1.2-1.2,2.6-1.6,4c-1.4,4.8-1.2,9.7-0.4,14.6
			c1.1,7.9,3.6,15.4,7.3,22.5c2.7,5.3,5.7,10.4,8.6,15.6c0.1,0.2,0.3,0.3,0.4,0.5c0.4,0,0.7,0,1-0.1c7.3-1.5,14.5-2.9,21.8-4.5
			c12.1-2.8,23.9-6.3,35.8-9.9C131.7,105.8,132.3,105.5,132.4,104.5z M234.7,109.1c0.3,0.3,0.5,0.4,0.7,0.5c5.4,3.6,11.1,6.4,17.3,8
			c5.7,1.5,11.6,2.2,17.5,2.8c6.6,0.6,13.2,0.4,19.8,0.1c1.1,0,1.6-0.5,2.1-1.5c3.3-7.8,6.3-15.7,8.8-23.8c2.1-6.8,4-13.8,4.7-20.9
			c0.2-1.9,0.3-4,0-5.9c-1.1-6.5-8-10.9-14.7-9.6c-3.4,0.7-6.4,2.2-9,4.5c-1.9,1.7-3.7,3.5-5.4,5.4c-4.3,4.9-8.4,9.8-12.7,14.8
			c-4.8,5.6-9.7,11.2-15.1,16.2C244.6,103.6,240.3,107.2,234.7,109.1z M245.4,322.4c1.7,0.5,3.2,1,4.8,1.4c4.8,1.2,9.5,0.8,13.8-1.8
			c1.9-1.1,3.1-2.6,3.8-4.7c1-3.2,1.4-6.5,1.5-9.8c0.4-10.5-1.1-20.9-3.6-31.1c-4.2-16.8-7.3-33.8-10.4-50.8
			c-0.2-0.9-0.4-1.8-0.6-2.7c-0.2,0.3-0.2,0.5-0.2,0.7c0.3,5.8,0.7,11.5,0.9,17.3c0.3,8.1,0.4,16.2,0.1,24.3
			c-0.2,4.6-0.5,9.2-1.2,13.8c-0.9,5.7-1.8,11.5-2.9,17.2c-1.3,6.7-2.8,13.4-4.3,20.1C246.8,318.2,246.1,320.1,245.4,322.4z
			 M108,215.6c-0.1,0-0.2,0-0.3-0.1c-0.4,1.8-0.8,3.6-1.2,5.5c-4.8,21.9-9.7,43.7-13.8,65.7c-1.1,5.8-1.8,11.6-1.9,17.4
			c0,2.9,0.1,5.7,0.7,8.5c1.3,6.3,5,10.1,12.1,11.8c1.8,0.4,3.7,0.1,5.6,0c1.2-0.1,2.5-0.4,3.6-1c-0.1-0.2-0.1-0.4-0.2-0.5
			c-0.7-1.8-1.4-3.5-2-5.3c-3.8-11.1-5.5-22.6-5.8-34.3c-0.5-15.6,0-31.1,1.2-46.7c0.5-6.1,1.1-12.1,1.6-18.2
			C107.8,217.6,107.9,216.6,108,215.6z M188,304c0,0.1,0,0.2-0.1,0.3c0.4,0.2,0.8,0.4,1.1,0.7c3.9,2.5,7.8,4.8,10.8,8.5
			c4.6,5.6,9.3,11.1,14,16.6c1.5,1.8,3.2,3.3,5.1,4.7c6,4.2,13.5,2.8,18.2-1.8c2.6-2.6,4.5-5.8,5.9-9.2c0.1-0.2,0.1-0.3,0.1-0.4
			c-11.7-6.8-23.9-12.2-37-15.6C200.2,306.2,194.1,304.8,188,304z M115.1,324.5c1.2,2.6,2.6,4.8,4.6,6.8c1.2,1.2,2.7,2.1,4.3,2.6
			c2.9,0.9,5.9,0.9,8.9,0.1c3.5-0.9,6.6-2.7,9.5-4.8c3.7-2.7,7-5.8,10-9.1c3.3-3.7,6.6-7.6,9.8-11.4c1.6-1.9,3.4-3.5,5.5-4.8
			c0.2-0.1,0.4-0.3,0.8-0.7c-0.4,0-0.6,0-0.8,0.1c-4,0.7-7.8,1.7-11.7,3c-7.9,2.6-15.4,6.1-22.8,9.6c-5.4,2.6-10.8,5.2-16.2,7.7
			C116.5,323.9,115.8,324.2,115.1,324.5z"/>
		<path class="st1" d="M181.4,148.3c0.2-0.1,0.3-0.2,0.4-0.3c2.4-3.3,5.8-4.4,9.6-4.8c0.5-0.1,1,0,1.5,0c4.3-0.4,8,2.9,8.5,7.7
			c0.4,4.1-0.6,7.8-2.3,11.4c-2,4.6-4.6,8.8-7.3,13c-2,3.2-4.6,5.9-7,8.8c-1,1.2-2,2.4-3,3.6c-0.2,0.2-0.3,0.4-0.5,0.7
			c-0.3-0.3-0.4-0.5-0.6-0.8c-1.9-2.7-3.7-5.5-5.5-8.2c-1.2-1.9-2.3-3.8-3.4-5.8c-2.5-4.6-4.9-9.2-7.4-13.8
			c-0.4-0.8-0.7-1.6-1.1-2.4c-0.7-1.4-0.8-2.9-0.6-4.5c0.3-2,0.9-3.8,2.1-5.5c1.5-2.2,3.6-3.3,6.2-3.6c4.2-0.4,7.6,0.9,10.3,4.3
			C181.2,148.1,181.3,148.1,181.4,148.3z"/>
		<path class="st0" d="M159.5,78.3c1.1-2.4,2.6-4.2,5.3-4.8c3.6-0.8,6.5,0.9,7.3,4.3c-0.4-0.2-0.7-0.3-0.9-0.5
			c-2.5-1.6-5.1-1.8-7.8-0.7C162.1,77.1,160.8,77.7,159.5,78.3z"/>
		<path class="st0" d="M209.7,79.1c-0.8-0.6-1.5-1.1-2.2-1.7c-1.5-1.2-3.1-1.5-4.9-1.1c-1.6,0.4-3.1,0.9-4.6,1.3
			c0.9-2.2,3.9-4.4,6.6-4.1C206.8,74,209.2,76.4,209.7,79.1z"/>
	</g>
</g>
</svg>
